<?xml version="1.0" encoding="utf-8"?>
<!-- Uploaded to: SVG Repo, www.svgrepo.com, Generator: SVG Repo Mixer Tools -->
<!DOCTYPE svg PUBLIC "-//W3C//DTD SVG 1.1//EN" "http://www.w3.org/Graphics/SVG/1.1/DTD/svg11.dtd">
<svg fill="current" width="24px" height="24px" viewBox="0 0 1000 1000" version="1.1" xmlns="http://www.w3.org/2000/svg" xmlns:xlink="http://www.w3.org/1999/xlink"  enable-background="new 0 0 1000 1000" xml:space="preserve">
<metadata> Svg Vector Icons : http://www.onlinewebfonts.com/icon </metadata>
<g>

<g transform="translate(0.000000,511.000000) scale(0.100000,-0.100000)">

<path d="M4396.9,5000c-435-39.6-933.4-227.4-1332.8-500.3c-229.4-158.2-555.7-450.9-630.8-567.5c-162.2-255.1-174-494.4-37.6-777.1c92.9-191.8,407.4-502.3,609.1-601.2c263-130.5,516.1-114.7,765.3,45.5c122.6,81.1,322.3,284.8,373.7,383.6c120.6,237.3,389.6,553.7,607.1,719.8c160.2,120.6,474.6,268.9,684.2,322.3c197.8,49.4,502.3,71.2,715.9,51.4l152.3-15.8l59.3-144.3c225.4-537.9,342.1-1344.7,280.8-1918.2C6544.4,1088.5,6145,315.4,5433.1-347.1c-367.8-342.1-506.2-605.1-488.4-933.3c11.9-227.4,91-387.6,296.6-591.3c397.5-395.5,856.2-433.1,1309.1-106.8c179.9,130.5,272.9,233.3,680.2,755.4C7958.3-289.8,8343.9,843.3,8243.1,1753c-79.1,721.8-379.7,1322.9-949.2,1896.4c-225.4,225.4-342.1,320.4-876,715.9C5775.2,4839.8,5071.2,5061.3,4396.9,5000z M5179.9,4632.2c195.8-51.4,591.3-205.7,591.3-231.4c0-7.9-57.3-19.8-128.5-27.7c-478.5-49.4-972.9-288.7-1319-638.7c-191.8-193.8-249.2-267-395.5-504.3c-245.2-401.4-518.1-537.9-791-399.4c-132.5,67.2-411.3,346.1-472.6,472.6c-67.2,142.4-65.3,304.5,7.9,429.1c59.3,100.8,330.2,344.1,563.6,506.2c296.6,205.7,668.4,365.8,1004.6,429.1C4481.9,4713.3,4936.7,4695.5,5179.9,4632.2z M7050.7,3457.6c437-435,698-874,828.6-1394.1c75.2-298.6,87-747.5,31.6-1073.8c-118.6-688.2-429.1-1368.4-917.6-2007.1c-441-577.4-609-743.5-840.4-830.5c-233.3-89-482.5-17.8-698,197.7c-221.5,221.5-265,429.1-138.4,684.2c53.4,110.8,120.6,187.9,395.5,460.8c179.9,180,387.6,407.4,458.8,502.3c389.6,524,632.8,1101.5,739.6,1746.1c49.4,290.7,49.4,933.4,2,1253.7c-27.7,191.8-104.8,547.8-144.4,678.3C6748.1,3740.3,6823.3,3683,7050.7,3457.6z"/>
</g>

</g>
</svg>