<svg xmlns="http://www.w3.org/2000/svg" width="583" height="583" viewBox="0 0 583 583" version="1.1"><path d="M 275.750 10.706 C 276.988 10.944, 279.012 10.944, 280.250 10.706 C 281.488 10.467, 280.475 10.272, 278 10.272 C 275.525 10.272, 274.512 10.467, 275.750 10.706 M 301.762 10.707 C 303.006 10.946, 304.806 10.937, 305.762 10.687 C 306.718 10.437, 305.700 10.241, 303.500 10.252 C 301.300 10.263, 300.518 10.468, 301.762 10.707 M 274.762 50.707 C 276.006 50.946, 277.806 50.937, 278.762 50.687 C 279.718 50.437, 278.700 50.241, 276.500 50.252 C 274.300 50.263, 273.518 50.468, 274.762 50.707 M 300.250 50.689 C 301.212 50.941, 302.788 50.941, 303.750 50.689 C 304.712 50.438, 303.925 50.232, 302 50.232 C 300.075 50.232, 299.288 50.438, 300.250 50.689 M 446.722 58.074 C 447.944 59.347, 449.196 60.137, 449.503 59.830 C 449.811 59.522, 448.811 58.481, 447.281 57.515 L 444.500 55.759 446.722 58.074 M 479 82.313 C 479 82.485, 480.462 83.948, 482.250 85.563 L 485.500 88.500 482.563 85.250 C 479.825 82.221, 479 81.540, 479 82.313 M 497.063 100.577 C 498.953 102.819, 500.702 104.492, 500.950 104.294 C 501.197 104.095, 499.651 102.261, 497.513 100.217 L 493.626 96.500 497.063 100.577 M 106.533 101.103 C 107.729 104.873, 107.459 146.561, 106.154 159.500 C 104.447 176.420, 102.610 188.296, 96.484 222 C 89.493 260.468, 87.617 277.416, 88.347 295.500 C 89.503 324.125, 96.787 346.433, 111.415 366.149 C 118.195 375.287, 129.097 385.288, 138.325 390.833 C 149.006 397.252, 166.988 403.412, 169.044 401.356 C 170.389 400.011, 176.366 376.099, 178.382 364 C 181.014 348.201, 182.013 337.393, 182.636 318 L 183.230 299.500 172.865 291.505 C 143.654 268.972, 126.356 246.141, 118.531 219.792 C 116.765 213.844, 115.651 213.271, 131.552 226.500 C 150.281 242.082, 158.182 248.934, 169.250 259.193 C 179.568 268.757, 180 269.039, 180 266.208 C 180 256.755, 172.574 223.523, 163.897 194.153 C 161.230 185.122, 159.288 177.343, 159.583 176.866 C 160.905 174.727, 162.854 176.633, 167.664 184.767 C 180.928 207.199, 193.369 240.149, 199.467 269 C 202.625 283.941, 204.945 299.623, 205.013 306.500 L 205.063 311.500 207.282 308.509 C 218.776 293.011, 244.433 265, 247.133 265 C 250.089 265, 244.702 286.657, 238.472 299.820 C 232.105 313.271, 225.884 322.140, 214.783 333.591 C 205.112 343.566, 205 343.738, 204.991 348.591 C 204.977 356.662, 200.185 393.310, 198.350 399.382 C 197.839 401.073, 198.172 401.193, 201.641 400.564 C 203.763 400.180, 208.875 398.412, 213 396.636 C 253.990 378.989, 277.419 332.901, 272.048 280.481 C 267.562 236.701, 245.589 196.031, 208.702 163.235 C 189.680 146.323, 165.552 129.450, 140.500 115.542 C 128.380 108.813, 111.814 100.601, 108.151 99.505 C 106.050 98.876, 105.879 99.045, 106.533 101.103 M 79.004 104.496 C 77.714 105.869, 76.848 107.160, 77.079 107.364 C 77.311 107.569, 78.547 106.446, 79.826 104.868 C 82.689 101.338, 82.185 101.110, 79.004 104.496 M 504.703 109.469 C 505.691 110.826, 506.916 111.951, 507.424 111.969 C 507.933 111.986, 507.292 110.875, 506 109.500 C 503.002 106.309, 502.393 106.294, 504.703 109.469 M 463 123.500 C 468.203 128.725, 472.685 133, 472.960 133 C 473.235 133, 469.203 128.725, 464 123.500 C 458.797 118.275, 454.315 114, 454.040 114 C 453.765 114, 457.797 118.275, 463 123.500 M 387.252 212.500 C 387.263 214.700, 387.468 215.482, 387.707 214.238 C 387.946 212.994, 387.937 211.194, 387.687 210.238 C 387.437 209.282, 387.241 210.300, 387.252 212.500 M 361.469 228.250 L 355.500 234.500 361.750 228.531 C 367.556 222.987, 368.458 222, 367.719 222 C 367.564 222, 364.751 224.813, 361.469 228.250 M 448.500 233 C 450.648 235.200, 452.631 237, 452.906 237 C 453.181 237, 451.648 235.200, 449.500 233 C 447.352 230.800, 445.369 229, 445.094 229 C 444.819 229, 446.352 230.800, 448.500 233 M 397.300 245 C 397.300 248.025, 397.487 249.262, 397.716 247.750 C 397.945 246.238, 397.945 243.762, 397.716 242.250 C 397.487 240.738, 397.300 241.975, 397.300 245 M 459 244.313 C 459 244.485, 460.462 245.948, 462.250 247.563 L 465.500 250.500 462.563 247.250 C 459.825 244.221, 459 243.540, 459 244.313 M 409.232 248 C 409.232 249.925, 409.438 250.713, 409.689 249.750 C 409.941 248.787, 409.941 247.213, 409.689 246.250 C 409.438 245.287, 409.232 246.075, 409.232 248 M 335 253.500 C 332.571 255.975, 330.809 258, 331.084 258 C 331.359 258, 333.571 255.975, 336 253.500 C 338.429 251.025, 340.191 249, 339.916 249 C 339.641 249, 337.429 251.025, 335 253.500 M 396.252 264.500 C 396.263 266.700, 396.468 267.482, 396.707 266.238 C 396.946 264.994, 396.937 263.194, 396.687 262.238 C 396.437 261.282, 396.241 262.300, 396.252 264.500 M 410.252 265.500 C 410.263 267.700, 410.468 268.482, 410.707 267.238 C 410.946 265.994, 410.937 264.194, 410.687 263.238 C 410.437 262.282, 410.241 263.300, 410.252 265.500 M 395.272 282 C 395.272 284.475, 395.467 285.488, 395.706 284.250 C 395.944 283.012, 395.944 280.988, 395.706 279.750 C 395.467 278.512, 395.272 279.525, 395.272 282 M 411.232 285 C 411.232 286.925, 411.438 287.712, 411.689 286.750 C 411.941 285.788, 411.941 284.212, 411.689 283.250 C 411.438 282.288, 411.232 283.075, 411.232 285 M 533.365 292.500 C 533.368 298, 533.536 300.122, 533.738 297.216 C 533.941 294.311, 533.939 289.811, 533.734 287.216 C 533.528 284.622, 533.363 287, 533.365 292.500 M 573.360 294 C 573.360 299.225, 573.529 301.363, 573.735 298.750 C 573.941 296.137, 573.941 291.863, 573.735 289.250 C 573.529 286.637, 573.360 288.775, 573.360 294 M 394.252 302.500 C 394.263 304.700, 394.468 305.482, 394.707 304.238 C 394.946 302.994, 394.937 301.194, 394.687 300.238 C 394.437 299.282, 394.241 300.300, 394.252 302.500 M 412.252 305.500 C 412.263 307.700, 412.468 308.482, 412.707 307.238 C 412.946 305.994, 412.937 304.194, 412.687 303.238 C 412.437 302.282, 412.241 303.300, 412.252 305.500 M 393.252 321.500 C 393.263 323.700, 393.468 324.482, 393.707 323.238 C 393.946 321.994, 393.937 320.194, 393.687 319.238 C 393.437 318.282, 393.241 319.300, 393.252 321.500 M 413.232 323 C 413.232 324.925, 413.438 325.712, 413.689 324.750 C 413.941 323.788, 413.941 322.212, 413.689 321.250 C 413.438 320.288, 413.232 321.075, 413.232 323 M 392.252 339.500 C 392.263 341.700, 392.468 342.482, 392.707 341.238 C 392.946 339.994, 392.937 338.194, 392.687 337.238 C 392.437 336.282, 392.241 337.300, 392.252 339.500 M 391.252 355.500 C 391.263 357.700, 391.468 358.482, 391.707 357.238 C 391.946 355.994, 391.937 354.194, 391.687 353.238 C 391.437 352.282, 391.241 353.300, 391.252 355.500 M 369.762 373.707 C 371.006 373.946, 372.806 373.937, 373.762 373.687 C 374.718 373.437, 373.700 373.241, 371.500 373.252 C 369.300 373.263, 368.518 373.468, 369.762 373.707 M 428.250 373.689 C 429.212 373.941, 430.788 373.941, 431.750 373.689 C 432.712 373.438, 431.925 373.232, 430 373.232 C 428.075 373.232, 427.288 373.438, 428.250 373.689 M 304.264 415.718 C 305.784 415.947, 308.034 415.941, 309.264 415.704 C 310.494 415.467, 309.250 415.279, 306.500 415.286 C 303.750 415.294, 302.744 415.488, 304.264 415.718 M 336.768 415.725 C 338.565 415.947, 341.265 415.943, 342.768 415.715 C 344.271 415.486, 342.800 415.304, 339.500 415.310 C 336.200 415.315, 334.971 415.502, 336.768 415.725 M 362.750 416.706 C 363.988 416.944, 366.012 416.944, 367.250 416.706 C 368.488 416.467, 367.475 416.272, 365 416.272 C 362.525 416.272, 361.512 416.467, 362.750 416.706 M 415.250 417.749 C 428.863 417.906, 451.137 417.906, 464.750 417.749 C 478.363 417.592, 467.225 417.463, 440 417.463 C 412.775 417.463, 401.637 417.592, 415.250 417.749 M 358.750 432.740 C 362.188 432.936, 367.813 432.936, 371.250 432.740 C 374.688 432.545, 371.875 432.385, 365 432.385 C 358.125 432.385, 355.313 432.545, 358.750 432.740 M 418.750 432.746 C 424.387 432.924, 433.613 432.924, 439.250 432.746 C 444.887 432.568, 440.275 432.422, 429 432.422 C 417.725 432.422, 413.113 432.568, 418.750 432.746 M 146.264 443.718 C 147.784 443.947, 150.034 443.941, 151.264 443.704 C 152.494 443.467, 151.250 443.279, 148.500 443.286 C 145.750 443.294, 144.744 443.488, 146.264 443.718 M 159.250 460.689 C 160.213 460.941, 161.787 460.941, 162.750 460.689 C 163.713 460.438, 162.925 460.232, 161 460.232 C 159.075 460.232, 158.287 460.438, 159.250 460.689 M 322.750 471.750 C 341.587 471.902, 372.412 471.902, 391.250 471.750 C 410.087 471.597, 394.675 471.473, 357 471.473 C 319.325 471.473, 303.912 471.597, 322.750 471.750 M 73 472.755 C 73 473.305, 73.675 474.315, 74.500 475 C 75.337 475.694, 76 475.803, 76 475.245 C 76 474.695, 75.325 473.685, 74.500 473 C 73.663 472.306, 73 472.197, 73 472.755 M 90.477 491.789 C 94.864 496.305, 98.631 500, 98.849 500 C 99.776 500, 88.932 488.711, 84.957 485.539 C 83.606 484.460, 86.089 487.272, 90.477 491.789 M 287.750 508.750 C 309.338 508.900, 344.663 508.900, 366.250 508.750 C 387.838 508.599, 370.175 508.476, 327 508.476 C 283.825 508.476, 266.163 508.599, 287.750 508.750 M 136 528.385 C 136 528.597, 137.238 529.566, 138.750 530.540 L 141.500 532.310 139.595 530.155 C 137.909 528.248, 136 527.308, 136 528.385 M 283.789 573.741 C 287.248 573.937, 292.648 573.936, 295.789 573.738 C 298.930 573.540, 296.100 573.380, 289.500 573.382 C 282.900 573.384, 280.330 573.546, 283.789 573.741" stroke="none" fill="#71b568" fill-rule="evenodd"/><path d="M 270.318 11.042 C 254.271 12.220, 240.779 14.288, 225.225 17.953 C 211.867 21.101, 188.419 28.407, 186.462 30.031 C 185.832 30.555, 185.111 30.778, 184.861 30.528 C 184.611 30.278, 176.328 34.094, 166.453 39.009 C 148.137 48.125, 146.870 48.818, 141.317 52.747 C 139.566 53.986, 137.900 55, 137.615 55 C 137.126 55, 125.254 63.101, 122 65.655 C 119.120 67.916, 108.862 76.135, 107.188 77.525 C 103.724 80.399, 81.317 102.664, 77.599 106.927 C 64.353 122.111, 48.461 146.068, 38.743 165.500 C 18.673 205.629, 8.520 249.193, 8.562 295 C 8.601 338.686, 17.124 375.415, 36.522 415.500 C 46.443 436.001, 64.191 463.347, 72.923 471.589 C 74.615 473.187, 76.003 474.945, 76.007 475.497 C 76.013 476.444, 100.724 501.048, 108.149 507.500 C 112.792 511.534, 118.906 516.293, 120.885 517.415 C 121.773 517.918, 122.725 518.626, 123 518.990 C 123.734 519.960, 135.784 528, 136.504 528 C 136.841 528, 138.778 529.310, 140.809 530.911 C 145.789 534.839, 165.176 545.151, 177.712 550.539 C 197.840 559.192, 220.457 565.661, 246.093 570.098 C 263.763 573.157, 301.916 573.890, 321.294 571.544 C 361.112 566.723, 398.878 555.025, 428.255 538.413 C 440.774 531.333, 465 515.186, 465 513.921 C 465 513.414, 465.649 513, 466.443 513 C 467.237 513, 468.475 512.205, 469.193 511.233 C 469.912 510.261, 471.625 508.745, 473 507.866 C 481.833 502.214, 520 461.319, 520 457.506 C 520 457.104, 521.145 455.363, 522.544 453.637 C 527.896 447.038, 532.298 440.531, 533.729 437.106 C 534.547 435.147, 536.536 431.627, 538.149 429.284 C 539.762 426.940, 541.682 423.330, 542.416 421.261 C 543.151 419.192, 544.681 415.925, 545.816 414 C 548.933 408.715, 558.422 384.439, 560.475 376.500 C 561.470 372.650, 562.626 369.050, 563.044 368.500 C 564.083 367.132, 568.684 346.298, 570.594 334.312 C 572.761 320.712, 573.589 282.529, 572.045 267.426 C 568.549 233.231, 559.992 202.515, 545.090 170.669 C 535.388 149.937, 519.168 124.694, 507.391 112 C 505.605 110.075, 501.974 106.036, 499.322 103.024 C 488.232 90.430, 474.939 78.178, 461.562 68.223 C 456.045 64.117, 450.849 60.508, 450.016 60.202 C 449.182 59.897, 446.587 58.097, 444.250 56.203 C 441.913 54.309, 440 53.056, 440 53.418 C 440 53.781, 439.099 53.239, 437.998 52.213 C 435.008 49.427, 410.091 36.794, 397.187 31.522 C 374.005 22.049, 344.672 14.559, 321 12.068 C 306.234 10.515, 283.713 10.059, 270.318 11.042 M 269.500 50.612 C 236.920 53.926, 204.800 63.212, 178.490 76.923 C 169.171 81.780, 156 89.737, 156 90.510 C 156 90.635, 162.897 94.830, 171.326 99.833 C 200.664 117.244, 220.059 132.030, 241.042 152.980 C 274.287 186.173, 293.853 222.679, 301.616 266 C 304.007 279.344, 304.042 309.093, 301.682 322 C 298.111 341.530, 289.926 365.565, 282.356 378.750 C 281.014 381.087, 280.272 382.996, 280.708 382.991 C 281.144 382.986, 291.175 381.659, 303 380.041 C 327.651 376.670, 352.637 374.379, 375.107 373.430 L 390.713 372.771 391.393 361.636 C 392.163 349.010, 396.572 267.620, 397.616 246.750 L 398.304 233 403.107 233 C 409.069 233, 408.509 230.206, 410.529 270 C 411.381 286.775, 412.960 315.404, 414.039 333.620 C 415.117 351.836, 416 368.104, 416 369.771 L 416 372.803 427.750 373.462 C 458.034 375.163, 484.833 377.952, 505.038 381.508 C 518.189 383.822, 517.323 384.205, 520.331 374.750 C 539.423 314.735, 537.828 257.543, 515.513 202 C 498.828 160.469, 470.130 123.906, 433.641 97.690 C 399.763 73.349, 362.618 58.027, 324 52.464 C 313.086 50.892, 278.354 49.711, 269.500 50.612 M 106.533 101.103 C 107.729 104.873, 107.459 146.561, 106.154 159.500 C 104.447 176.420, 102.610 188.296, 96.484 222 C 89.493 260.468, 87.617 277.416, 88.347 295.500 C 89.503 324.125, 96.787 346.433, 111.415 366.149 C 118.195 375.287, 129.097 385.288, 138.325 390.833 C 149.006 397.252, 166.988 403.412, 169.044 401.356 C 170.389 400.011, 176.366 376.099, 178.382 364 C 181.014 348.201, 182.013 337.393, 182.636 318 L 183.230 299.500 172.865 291.505 C 143.654 268.972, 126.356 246.141, 118.531 219.792 C 116.765 213.844, 115.651 213.271, 131.552 226.500 C 150.281 242.082, 158.182 248.934, 169.250 259.193 C 179.568 268.757, 180 269.039, 180 266.208 C 180 256.755, 172.574 223.523, 163.897 194.153 C 161.230 185.122, 159.288 177.343, 159.583 176.866 C 160.905 174.727, 162.854 176.633, 167.664 184.767 C 180.928 207.199, 193.369 240.149, 199.467 269 C 202.625 283.941, 204.945 299.623, 205.013 306.500 L 205.063 311.500 207.282 308.509 C 218.776 293.011, 244.433 265, 247.133 265 C 250.089 265, 244.702 286.657, 238.472 299.820 C 232.105 313.271, 225.884 322.140, 214.783 333.591 C 205.112 343.566, 205 343.738, 204.991 348.591 C 204.977 356.662, 200.185 393.310, 198.350 399.382 C 197.839 401.073, 198.172 401.193, 201.641 400.564 C 203.763 400.180, 208.875 398.412, 213 396.636 C 253.990 378.989, 277.419 332.901, 272.048 280.481 C 267.562 236.701, 245.589 196.031, 208.702 163.235 C 189.680 146.323, 165.552 129.450, 140.500 115.542 C 128.380 108.813, 111.814 100.601, 108.151 99.505 C 106.050 98.876, 105.879 99.045, 106.533 101.103 M 402.569 100.250 C 402.212 101.462, 401.090 109.739, 394.880 156.970 C 392.242 177.030, 392.051 180.217, 393.094 186.685 C 394.179 193.412, 394.402 193.855, 396.213 192.886 C 397.286 192.312, 401.297 191.990, 405.128 192.171 C 411.426 192.469, 412.132 192.309, 412.507 190.500 C 415.099 177.996, 415.096 177.714, 412.019 148.184 C 406.894 98.986, 406.896 99, 404.785 99 C 403.769 99, 402.771 99.563, 402.569 100.250 M 395.984 198.852 C 385.698 204.318, 385.152 218.987, 394.975 225.982 C 399.042 228.878, 407.585 228.762, 412.010 225.750 C 417.539 221.987, 419.500 218.518, 419.500 212.500 C 419.500 206.482, 417.539 203.013, 412.010 199.250 C 407.870 196.432, 400.865 196.258, 395.984 198.852 M 375.203 219.545 C 367.513 222.924, 368.527 222.034, 326.500 262.316 L 313.500 274.776 316.157 276.006 C 318.666 277.168, 320.507 276.222, 349.341 258.948 C 366.759 248.514, 382.358 238.434, 385.665 235.476 L 391.462 230.291 388.190 226.563 C 386.390 224.513, 384.653 221.514, 384.329 219.897 C 384.006 218.281, 383.462 216.819, 383.121 216.648 C 382.779 216.477, 379.216 217.781, 375.203 219.545 M 422.583 220.525 C 422.234 221.914, 420.362 224.807, 418.422 226.954 L 414.895 230.858 420.671 237.010 C 426.481 243.198, 436.864 250.481, 467 269.507 C 490.145 284.119, 488.356 283.191, 490.447 281.662 C 492.111 280.446, 491.426 279.423, 481.878 268.857 C 476.170 262.541, 463.963 249.290, 454.751 239.409 L 438.002 221.444 431.251 219.713 C 422.847 217.559, 423.339 217.513, 422.583 220.525 M 288.500 416.526 C 267.196 418.489, 246.607 422.284, 223.500 428.509 C 196.275 435.843, 174.648 440.972, 166.233 442.093 C 160.996 442.790, 151.696 443.034, 143 442.704 C 128.196 442.141, 120.235 440.674, 103.698 435.460 C 91.793 431.706, 85.961 432.341, 83.959 437.609 C 83.296 439.353, 83.428 441.089, 84.402 443.420 C 85.600 446.286, 86.887 447.164, 93.731 449.777 C 115.586 458.123, 129.741 460.984, 149.216 460.994 C 168.817 461.004, 187.225 457.687, 220.922 448.071 C 245.135 441.162, 264.760 437.058, 286.500 434.357 C 299.099 432.791, 310.214 432.647, 397.588 432.918 C 484.310 433.187, 495 433.051, 497.716 431.647 C 502.773 429.032, 503.535 423.791, 499.420 419.924 L 496.841 417.500 439.670 417.262 C 408.227 417.131, 371.921 416.569, 358.992 416.012 C 329.093 414.725, 306.248 414.892, 288.500 416.526 M 287.158 458.602 C 282.247 462.042, 282.753 468.827, 288.086 471.036 C 290.365 471.980, 309.642 472.159, 372.311 471.821 L 453.579 471.382 458.002 468.941 C 463.313 466.010, 466.041 461.875, 464.391 459.259 C 463.349 457.606, 458.059 457.485, 376.371 457.245 C 297.780 457.014, 289.240 457.143, 287.158 458.602 M 237.359 496.550 C 234.277 499.632, 234.729 503.298, 238.619 506.772 L 241.163 509.044 324.332 508.772 C 403.315 508.514, 407.676 508.406, 411 506.633 C 416.805 503.537, 419 500.983, 419 497.326 L 419 494 329.455 494 L 239.909 494 237.359 496.550" stroke="none" fill="#3b2b23" fill-rule="evenodd"/><path d="M 278.824 50.991 C 277.903 51.555, 274.528 51.943, 271.324 51.854 C 263.894 51.646, 252.180 52.833, 249.968 54.017 C 249.030 54.519, 248.020 54.687, 247.723 54.390 C 247.138 53.805, 222.101 59.619, 218 61.292 C 216.625 61.853, 215.050 62.360, 214.500 62.418 C 211.618 62.724, 203.056 66.281, 203.494 66.990 C 203.774 67.443, 203.102 67.578, 202.001 67.290 C 200.901 67.002, 200 67.255, 200 67.852 C 200 68.449, 199.325 68.678, 198.500 68.362 C 197.675 68.045, 197 68.209, 197 68.726 C 197 69.244, 196.438 69.673, 195.750 69.681 C 193.598 69.706, 184 74.199, 184 75.182 C 184 75.697, 183.550 75.840, 183 75.500 C 182.450 75.160, 182 75.385, 182 76 C 182 76.615, 181.550 76.840, 181 76.500 C 180.450 76.160, 180 76.385, 180 77 C 180 77.615, 179.586 77.862, 179.081 77.550 C 178.575 77.237, 177.504 77.639, 176.700 78.443 C 175.896 79.247, 174.960 79.626, 174.619 79.286 C 174.279 78.945, 174 79.192, 174 79.833 C 174 80.475, 173.662 80.907, 173.250 80.794 C 171.915 80.428, 166 84.016, 166 85.192 C 166 85.820, 165.707 86.040, 165.349 85.682 C 164.991 85.324, 164.057 85.812, 163.275 86.766 C 162.325 87.923, 162.067 88.001, 162.500 87 C 162.857 86.175, 162.440 86.374, 161.574 87.441 C 160.708 88.509, 160 89.016, 160 88.569 C 160 88.121, 159.330 88.311, 158.511 88.991 C 156.955 90.282, 157.448 92.459, 159.069 91.457 C 159.581 91.141, 160 91.330, 160 91.879 C 160 92.992, 169.926 98.642, 171.192 98.250 C 171.637 98.113, 172 98.438, 172 98.974 C 172 99.846, 177.568 103.353, 179.119 103.458 C 179.459 103.481, 181.206 104.625, 183 106 C 184.794 107.375, 186.541 108.455, 186.881 108.401 C 187.221 108.346, 188.096 109.021, 188.824 109.901 C 189.865 111.158, 190.007 111.179, 189.487 110 C 189.124 109.175, 189.653 109.419, 190.663 110.543 C 191.673 111.667, 193.374 113.242, 194.442 114.043 C 196.153 115.327, 196.293 115.322, 195.616 114 C 195.193 113.175, 195.669 113.411, 196.674 114.525 C 199.205 117.332, 206 122.402, 206 121.484 C 206 121.069, 206.933 121.916, 208.073 123.365 C 210.092 125.932, 212.827 127.148, 211.405 124.845 C 210.959 124.124, 211.131 123.963, 211.862 124.415 C 212.506 124.813, 212.805 125.506, 212.527 125.956 C 212.249 126.405, 212.692 127.329, 213.511 128.009 C 214.330 128.689, 215 129.034, 215 128.776 C 215 128.518, 216.862 130.026, 219.138 132.127 C 221.414 134.228, 223.733 135.665, 224.292 135.319 C 224.875 134.959, 225.003 135.187, 224.591 135.853 C 224.179 136.519, 224.619 137.300, 225.624 137.686 C 226.587 138.056, 228.686 139.851, 230.288 141.676 C 231.891 143.501, 233.575 144.763, 234.032 144.480 C 234.488 144.198, 235.187 144.494, 235.585 145.138 C 236.080 145.939, 235.865 146.041, 234.905 145.463 C 233.729 144.754, 233.733 144.903, 234.930 146.378 C 235.717 147.346, 237.104 147.945, 238.013 147.707 C 238.934 147.466, 239.667 147.859, 239.667 148.593 C 239.667 149.319, 239.179 149.668, 238.583 149.369 C 237.988 149.071, 238.612 149.730, 239.972 150.835 C 241.332 151.940, 242.864 152.584, 243.377 152.267 C 243.889 151.950, 244.028 152.145, 243.685 152.701 C 242.883 153.998, 249.860 162.204, 251.109 161.433 C 251.626 161.113, 251.938 161.222, 251.802 161.676 C 251.361 163.147, 255.187 168.002, 256.264 167.337 C 256.849 166.975, 257.013 167.169, 256.638 167.777 C 256.269 168.374, 256.974 169.569, 258.206 170.432 C 259.437 171.294, 260.065 172, 259.600 172 C 259.135 172, 259.320 172.681, 260.010 173.512 C 261.035 174.748, 261.562 174.793, 262.883 173.762 C 264.342 172.623, 264.357 172.682, 263.032 174.365 C 261.707 176.048, 261.804 176.423, 264.032 178.227 C 265.390 179.326, 266.500 180.641, 266.500 181.149 C 266.500 181.657, 267.175 182.500, 268 183.021 C 268.825 183.543, 269.173 183.976, 268.772 183.985 C 268.372 183.993, 270.453 187.713, 273.397 192.250 C 276.341 196.787, 279.766 202.525, 281.009 205 C 282.252 207.475, 283.697 209.775, 284.220 210.112 C 284.743 210.448, 285.086 211.030, 284.982 211.405 C 284.682 212.486, 287.167 218, 287.955 218 C 288.346 218, 288.667 218.585, 288.667 219.300 C 288.667 220.743, 294.125 235.209, 294.967 236 C 295.260 236.275, 295.593 237.432, 295.706 238.570 C 295.820 239.709, 296.443 241.959, 297.091 243.570 C 297.739 245.182, 298.410 247.575, 298.582 248.890 C 298.753 250.204, 299.200 252.004, 299.575 252.890 C 299.950 253.775, 300.362 255.400, 300.490 256.500 C 300.619 257.600, 301.461 263.811, 302.362 270.301 C 306.279 298.523, 302.491 332.518, 292.842 355.717 C 291.192 359.686, 290.171 363.468, 290.575 364.121 C 291.017 364.837, 290.882 365.045, 290.235 364.645 C 289.236 364.028, 286.313 370.488, 286.795 372.250 C 286.908 372.663, 286.605 373, 286.121 373 C 285.311 373, 282.854 377.881, 282.746 379.707 C 282.720 380.143, 281.979 381.086, 281.099 381.802 C 279.677 382.960, 279.721 383.050, 281.500 382.624 C 282.600 382.360, 286.312 381.842, 289.748 381.474 C 293.758 381.044, 295.762 380.424, 295.342 379.745 C 294.898 379.026, 296.143 378.885, 299.214 379.306 C 301.704 379.647, 304.016 379.651, 304.353 379.314 C 304.690 378.977, 306.436 378.585, 308.233 378.443 C 322.318 377.330, 326.522 376.791, 328.228 375.878 C 329.305 375.302, 331.167 375.076, 332.366 375.377 C 333.564 375.678, 338.585 375.495, 343.523 374.970 C 348.460 374.445, 360.825 373.741, 371 373.404 C 381.175 373.067, 389.867 372.569, 390.315 372.297 C 390.763 372.025, 391.115 367.684, 391.096 362.651 C 391.078 357.618, 391.705 344.500, 392.490 333.500 C 393.274 322.500, 394.208 305.850, 394.565 296.500 C 394.922 287.150, 395.460 275.450, 395.760 270.500 C 396.061 265.550, 396.350 256.480, 396.403 250.344 C 396.457 244.209, 396.890 239.431, 397.368 239.726 C 397.845 240.022, 398.069 238.517, 397.865 236.382 L 397.494 232.500 402.808 232.644 C 405.730 232.723, 408.274 232.948, 408.462 233.144 C 408.966 233.670, 412.065 282.062, 412.104 290 C 412.113 291.925, 412.583 300.925, 413.149 310 C 413.714 319.075, 414.316 329.875, 414.487 334 C 414.657 338.125, 415.098 346, 415.466 351.500 C 415.835 357, 416.218 363.975, 416.318 367 L 416.500 372.500 428 373.274 C 434.325 373.699, 441.638 373.924, 444.251 373.774 C 446.864 373.623, 449.118 373.852, 449.261 374.282 C 449.404 374.712, 454.774 375.141, 461.194 375.235 C 467.614 375.330, 472.683 375.705, 472.458 376.068 C 471.949 376.891, 486.717 378.293, 487.939 377.538 C 488.429 377.235, 488.980 377.440, 489.165 377.993 C 489.349 378.546, 491.975 379.183, 495 379.409 C 498.025 379.635, 501.175 380.067, 502 380.368 C 505.275 381.565, 516.100 383.056, 517.087 382.446 C 517.664 382.090, 517.906 381.197, 517.624 380.463 C 517.343 379.730, 517.524 378.988, 518.027 378.815 C 518.530 378.642, 519.113 377.600, 519.321 376.500 C 519.529 375.400, 519.974 373.825, 520.309 373 C 523.682 364.699, 530.164 335.678, 530.249 328.500 C 530.281 325.750, 530.781 322.893, 531.358 322.151 C 532.866 320.215, 533.337 281.671, 532.007 269 C 529.868 248.619, 524.178 225.387, 516.270 204.750 C 514.848 201.038, 513.305 198, 512.842 198 C 512.379 198, 512.092 197.662, 512.205 197.250 C 512.598 195.813, 509.838 189, 508.863 189 C 508.324 189, 508.138 188.586, 508.450 188.081 C 508.763 187.575, 508.361 186.504, 507.557 185.700 C 506.753 184.896, 506.374 183.960, 506.714 183.619 C 507.055 183.279, 506.782 183, 506.108 183 C 505.434 183, 505.150 182.566, 505.477 182.036 C 505.805 181.507, 505.194 180.194, 504.120 179.120 C 503.046 178.046, 502.429 176.904, 502.750 176.583 C 503.071 176.263, 502.808 176, 502.167 176 C 501.525 176, 501.089 175.662, 501.198 175.250 C 501.611 173.689, 499.863 170.161, 498.399 169.599 C 497.560 169.278, 497.153 168.561, 497.496 168.007 C 497.838 167.453, 497.615 167, 497 167 C 496.385 167, 496.136 166.588, 496.447 166.085 C 496.758 165.582, 496.672 165.020, 496.256 164.835 C 495.840 164.651, 494.724 163.150, 493.775 161.500 C 492.827 159.850, 491.534 158.631, 490.903 158.791 C 490.260 158.954, 490.002 158.438, 490.315 157.620 C 490.624 156.816, 489.779 154.975, 488.438 153.528 C 487.097 152.081, 486 150.518, 486 150.054 C 486 149.591, 484.650 147.766, 483 146 C 481.350 144.234, 480 142.561, 480 142.283 C 480 140.923, 471.690 132.074, 470.881 132.573 C 470.369 132.890, 470.074 132.553, 470.225 131.824 C 470.376 131.096, 469.937 130.613, 469.250 130.750 C 468.562 130.888, 468.090 130.663, 468.200 130.250 C 468.527 129.023, 455.779 116.019, 454.826 116.608 C 454.344 116.905, 454.074 116.553, 454.225 115.824 C 454.376 115.096, 453.904 114.624, 453.176 114.775 C 452.447 114.926, 452.099 114.649, 452.402 114.158 C 453.093 113.041, 449.580 109.754, 448.669 110.664 C 448.301 111.032, 448 110.782, 448 110.108 C 448 109.434, 447.480 109.203, 446.845 109.595 C 446.184 110.004, 445.960 109.873, 446.322 109.288 C 446.669 108.727, 445.986 107.420, 444.805 106.384 C 443.623 105.348, 442.966 105.031, 443.344 105.681 C 443.723 106.330, 443.564 107.151, 442.992 107.505 C 442.419 107.859, 442.057 107.778, 442.188 107.324 C 442.318 106.871, 441.831 105.427, 441.105 104.115 C 440.063 102.231, 439.601 102.021, 438.908 103.115 C 438.200 104.233, 438.028 104.180, 438.015 102.844 C 438.007 101.933, 435.703 99.537, 432.896 97.521 C 430.088 95.504, 428.152 94.449, 428.593 95.177 C 429.033 95.905, 428.015 95.132, 426.329 93.459 C 424.643 91.787, 421.067 89.312, 418.382 87.959 C 415.697 86.607, 413.169 85.050, 412.765 84.500 C 412.361 83.950, 412.024 83.838, 412.015 84.250 C 412.007 84.663, 411.084 84.084, 409.964 82.964 C 408.843 81.843, 407.493 81.195, 406.964 81.523 C 406.434 81.850, 406 81.615, 406 81 C 406 80.385, 405.550 80.160, 405 80.500 C 404.450 80.840, 404 80.663, 404 80.106 C 404 79.069, 398.329 76.018, 395.679 75.629 C 394.866 75.510, 393.552 74.873, 392.759 74.215 C 391.965 73.556, 391.020 73.313, 390.658 73.675 C 390.296 74.037, 390 73.782, 390 73.108 C 390 72.434, 389.550 72.160, 389 72.500 C 388.450 72.840, 388 72.615, 388 72 C 388 71.385, 387.588 71.136, 387.085 71.447 C 386.582 71.758, 386.001 71.503, 385.794 70.881 C 385.586 70.259, 384.206 69.750, 382.727 69.750 C 381.111 69.750, 380.294 69.333, 380.682 68.705 C 381.081 68.060, 380.691 67.904, 379.664 68.299 C 378.749 68.650, 378 68.545, 378 68.066 C 378 67.037, 372.007 64.781, 371.985 65.802 C 371.976 66.186, 371.585 65.894, 371.115 65.152 C 370.646 64.411, 369.078 63.736, 367.631 63.652 C 366.185 63.569, 365.001 63.136, 365.001 62.691 C 365 62.246, 364.605 62.126, 364.121 62.425 C 363.638 62.724, 361.934 62.315, 360.335 61.517 C 356.496 59.602, 333.836 54.118, 326.937 53.434 C 323.947 53.138, 320.150 52.663, 318.500 52.378 C 309.601 50.845, 280.715 49.834, 278.824 50.991 M 95.966 86.750 L 90.500 92.500 96.250 87.034 C 101.592 81.956, 102.458 81, 101.716 81 C 101.560 81, 98.972 83.588, 95.966 86.750 M 85.453 97.250 L 81.500 101.500 85.750 97.547 C 89.702 93.871, 90.460 93, 89.703 93 C 89.540 93, 87.627 94.912, 85.453 97.250 M 403.182 99.128 C 401.794 99.642, 401.242 100.468, 401.624 101.462 C 401.948 102.308, 401.905 103.787, 401.527 104.750 C 401.149 105.713, 400.651 109.341, 400.421 112.814 C 400.190 116.287, 399.574 119.927, 399.052 120.903 C 398.530 121.878, 398.357 123.649, 398.668 124.838 C 398.979 126.027, 398.831 127, 398.340 127 C 397.849 127, 397.624 128.859, 397.841 131.132 C 398.058 133.404, 397.845 135.028, 397.368 134.740 C 396.890 134.453, 396.398 137.373, 396.272 141.229 C 396.147 145.086, 395.546 148.842, 394.936 149.577 C 394.327 150.311, 394.109 151.368, 394.454 151.925 C 394.798 152.482, 394.386 158.220, 393.540 164.677 C 391.718 178.569, 391.645 182.248, 393.064 188.863 L 394.128 193.824 397.307 192.912 C 401.514 191.705, 410 191.743, 410 192.969 C 410 193.501, 410.606 193.705, 411.346 193.421 C 413.859 192.456, 415.425 177.440, 414.223 165.840 C 413.634 160.153, 413.132 154.825, 413.109 154 C 413.085 153.175, 412.447 146.875, 411.689 140 C 410.931 133.125, 410.291 126.600, 410.267 125.500 C 410.242 124.400, 409.479 118.198, 408.571 111.719 C 407.663 105.239, 407.144 99.576, 407.416 99.135 C 408.051 98.109, 405.947 98.106, 403.182 99.128 M 400 196.940 C 396.927 197.910, 389 202.032, 389 202.660 C 389 202.912, 389.483 202.819, 390.074 202.454 C 390.664 202.089, 390.556 202.738, 389.833 203.895 C 389.110 205.053, 388.191 206, 387.791 206 C 387.390 206, 387.350 206.749, 387.701 207.664 C 388.086 208.666, 387.936 209.078, 387.325 208.701 C 386.083 207.933, 387.354 216.925, 388.894 219.802 C 389.464 220.866, 389.608 222.093, 389.215 222.529 C 388.822 222.964, 389.063 222.997, 389.750 222.601 C 390.545 222.144, 391 222.510, 391 223.608 C 391 224.557, 391.296 225.037, 391.658 224.675 C 392.454 223.880, 395.152 225.946, 394.562 226.899 C 394.109 227.632, 395.815 227.836, 403.633 227.982 C 410.266 228.106, 410.739 227.970, 414.012 225 C 420.293 219.299, 421.809 209.314, 417.325 203.176 C 413.930 198.527, 405.073 195.339, 400 196.940 M 379.225 216.488 C 378.045 218.474, 374.277 220.043, 372.408 219.326 C 371.306 218.904, 370.912 219.049, 371.329 219.723 C 371.700 220.323, 370.921 221.054, 369.542 221.400 C 368.197 221.738, 365.213 224.024, 362.911 226.481 C 360.608 228.937, 358.224 230.662, 357.612 230.313 C 357 229.965, 356.834 230.048, 357.241 230.498 C 358.195 231.550, 356.067 234.159, 354.862 233.415 C 354.361 233.105, 354.074 233.447, 354.225 234.176 C 354.377 234.909, 353.830 235.351, 353 235.167 C 352.175 234.983, 351.831 235.164, 352.236 235.569 C 353.039 236.373, 341.167 249.018, 339.910 248.697 C 339.485 248.589, 336.993 250.750, 334.371 253.500 C 331.749 256.250, 329.209 258.376, 328.728 258.225 C 328.246 258.074, 328.099 258.351, 328.402 258.842 C 329.148 260.049, 325.552 263.199, 324.509 262.252 C 324.052 261.838, 323.972 262.012, 324.329 262.637 C 324.963 263.747, 322.280 266.746, 321.096 266.250 C 320.768 266.113, 320.500 266.390, 320.500 266.866 C 320.500 267.342, 319.038 269.227, 317.250 271.055 C 315.462 272.884, 314 274.731, 314 275.161 C 314 275.591, 315.462 276.332, 317.250 276.808 C 319.655 277.449, 320.711 277.321, 321.311 276.316 C 321.758 275.569, 322.545 275.219, 323.061 275.538 C 323.578 275.857, 324 275.615, 324 275 C 324 274.385, 324.450 274.160, 325 274.500 C 325.550 274.840, 326 274.693, 326 274.173 C 326 273.210, 338.559 265.366, 340.995 264.807 C 341.731 264.638, 343.175 263.696, 344.203 262.714 C 345.232 261.731, 346.507 261.195, 347.036 261.523 C 347.566 261.850, 348 261.653, 348 261.085 C 348 260.050, 353.567 256.721, 354.446 257.230 C 354.704 257.378, 355.594 256.600, 356.425 255.500 C 357.256 254.400, 357.951 253.870, 357.968 254.321 C 357.986 254.773, 358.707 254.436, 359.571 253.571 C 360.436 252.707, 361.786 252, 362.571 252 C 363.357 252, 364 251.523, 364 250.941 C 364 250.359, 364.450 250.160, 365 250.500 C 365.550 250.840, 366 250.615, 366 250 C 366 249.385, 366.370 249.110, 366.822 249.390 C 367.274 249.669, 368.411 249.001, 369.348 247.906 C 370.286 246.811, 371.491 246.186, 372.027 246.516 C 372.562 246.847, 373 246.716, 373 246.225 C 373 245.157, 383.914 237.500, 385.436 237.500 C 386.021 237.500, 386.520 236.825, 386.545 236 C 386.570 235.175, 387.245 234.650, 388.045 234.833 C 388.845 235.017, 389.162 234.828, 388.748 234.414 C 388.334 234.001, 388.746 232.834, 389.662 231.821 C 391.224 230.095, 391.198 229.838, 389.239 227.740 C 388.090 226.508, 387.004 224.836, 386.825 224.024 C 386.646 223.212, 385.903 221.907, 385.172 221.125 C 384.442 220.342, 384.051 218.911, 384.304 217.945 C 384.855 215.839, 380.374 214.554, 379.225 216.488 M 422.526 219.883 C 422.178 221.468, 420.277 224.653, 418.302 226.960 L 414.711 231.155 420.884 237.383 C 424.279 240.808, 426.706 243.995, 426.278 244.466 C 425.850 244.936, 426.006 245.032, 426.624 244.679 C 427.242 244.326, 428.902 245.107, 430.312 246.414 C 431.723 247.721, 433.119 248.548, 433.415 248.252 C 433.711 247.956, 434.236 248.451, 434.581 249.351 C 434.927 250.252, 435.565 250.769, 436 250.500 C 436.435 250.231, 437.059 250.712, 437.388 251.569 C 437.717 252.426, 438.439 252.847, 438.993 252.504 C 439.547 252.162, 440 252.359, 440 252.941 C 440 253.523, 440.675 254, 441.500 254 C 442.325 254, 443.900 254.900, 445 256 C 446.100 257.100, 447 257.753, 447 257.452 C 447 256.638, 456.304 263.143, 457.718 264.947 C 458.388 265.801, 458.951 266.076, 458.968 265.559 C 458.986 265.041, 459.708 265.491, 460.574 266.559 C 461.440 267.626, 461.835 267.891, 461.451 267.146 C 460.974 266.220, 461.582 266.335, 463.377 267.511 C 464.820 268.457, 466 269.655, 466 270.174 C 466 270.693, 466.450 270.840, 467 270.500 C 467.550 270.160, 468 270.385, 468 271 C 468 271.615, 468.396 271.874, 468.879 271.575 C 469.363 271.276, 470.938 272.211, 472.379 273.652 C 473.821 275.093, 475 275.900, 475 275.445 C 475 274.990, 475.708 275.491, 476.574 276.559 C 477.440 277.626, 477.835 277.891, 477.451 277.146 C 476.974 276.220, 477.582 276.335, 479.377 277.511 C 480.820 278.457, 482 279.655, 482 280.174 C 482 280.693, 482.453 280.838, 483.007 280.496 C 483.561 280.153, 484.247 280.480, 484.531 281.221 C 485.251 283.096, 489.533 283.268, 491.017 281.480 C 491.925 280.386, 491.955 279.650, 491.131 278.658 C 490.519 277.920, 490.238 277.020, 490.509 276.658 C 490.779 276.296, 490.704 276.221, 490.342 276.491 C 489.371 277.216, 486.930 274.922, 487.570 273.887 C 487.871 273.399, 487.699 273, 487.186 273 C 486.674 273, 481.360 267.650, 475.377 261.111 C 461.091 245.497, 459.535 243.654, 459.814 242.676 C 459.944 242.222, 459.657 242.094, 459.178 242.390 C 458.698 242.686, 457 241.500, 455.403 239.753 C 453.806 238.006, 453.196 237.009, 454.047 237.538 C 454.898 238.067, 454.673 237.653, 453.547 236.618 C 452.421 235.583, 451.624 234.312, 451.775 233.793 C 451.926 233.275, 451.666 233.088, 451.198 233.378 C 449.719 234.292, 437.656 221.370, 438.571 219.851 C 439.237 218.743, 439.079 218.747, 437.692 219.872 C 436.486 220.850, 436 220.903, 436 220.055 C 436 219.356, 435.243 219.105, 434.167 219.447 C 433.158 219.767, 430.402 219.347, 428.041 218.514 C 425.680 217.682, 423.616 217, 423.454 217 C 423.292 217, 422.874 218.297, 422.526 219.883 M 573.252 281.500 C 573.263 283.700, 573.468 284.482, 573.707 283.238 C 573.946 281.994, 573.937 280.194, 573.687 279.238 C 573.437 278.282, 573.241 279.300, 573.252 281.500 M 7.355 294.500 C 7.352 299.450, 7.521 301.601, 7.731 299.280 C 7.940 296.959, 7.943 292.909, 7.736 290.280 C 7.530 287.651, 7.358 289.550, 7.355 294.500 M 573.272 307 C 573.272 309.475, 573.467 310.488, 573.706 309.250 C 573.944 308.012, 573.944 305.988, 573.706 304.750 C 573.467 303.512, 573.272 304.525, 573.272 307 M 300.500 416.091 C 294.450 416.590, 288.150 417.005, 286.500 417.013 C 283.939 417.026, 273.496 418.557, 262.500 420.532 C 260.850 420.828, 258.488 421.102, 257.250 421.141 C 256.012 421.180, 255 421.644, 255 422.173 C 255 422.702, 254.104 422.850, 253.009 422.503 C 251.914 422.155, 250.474 422.207, 249.809 422.618 C 249.145 423.029, 247.678 423.427, 246.550 423.503 C 242.347 423.788, 233 426.350, 233 427.218 C 233 427.713, 232.591 427.865, 232.090 427.556 C 231.044 426.909, 221.002 429.050, 220.996 429.922 C 220.993 430.240, 219.314 430.588, 217.264 430.695 C 215.214 430.802, 213.377 431.368, 213.183 431.951 C 212.988 432.535, 212.486 432.800, 212.066 432.541 C 211.399 432.129, 199.173 435.104, 195 436.693 C 194.175 437.007, 192.570 437.391, 191.432 437.545 C 190.295 437.699, 187.595 438.297, 185.432 438.875 C 170.382 442.893, 152.612 444.347, 137 442.836 C 122.957 441.477, 121.745 441.325, 120 440.707 C 114.426 438.733, 111.756 438.156, 110.472 438.649 C 109.662 438.960, 109 438.668, 109 438 C 109 437.332, 108.354 437.034, 107.565 437.337 C 106.775 437.640, 105.988 437.478, 105.815 436.978 C 105.642 436.478, 102.491 435.281, 98.814 434.319 C 91.877 432.503, 86.196 433.211, 86.750 435.822 C 86.888 436.470, 86.478 436.888, 85.839 436.750 C 85.181 436.608, 84.511 438.038, 84.291 440.052 C 84.006 442.666, 84.429 444.078, 85.893 445.403 C 89.024 448.237, 111.738 456.088, 114.851 455.413 C 116.750 455.001, 117.105 455.116, 116.105 455.818 C 112.325 458.471, 139.931 460.986, 163 460.090 C 169.122 459.852, 186.451 456.812, 187.774 455.744 C 188.475 455.178, 189.296 454.963, 189.599 455.266 C 189.903 455.569, 191.579 455.382, 193.325 454.851 C 195.071 454.319, 197.625 453.667, 199 453.403 C 200.375 453.138, 202.400 452.624, 203.500 452.260 C 205.864 451.478, 205.413 451.581, 210.754 450.602 C 213.094 450.174, 214.781 449.455, 214.503 449.005 C 214.225 448.555, 214.968 448.440, 216.155 448.751 C 217.726 449.162, 218.100 448.971, 217.531 448.050 C 216.963 447.131, 217.294 446.959, 218.743 447.418 C 219.839 447.766, 222.033 447.526, 223.618 446.884 C 225.203 446.242, 227.175 445.601, 228 445.460 C 228.825 445.318, 236.430 443.572, 244.899 441.579 C 264.784 436.900, 282.359 434.109, 303 432.353 C 311.790 431.605, 340.381 431.594, 424.250 432.306 C 471.033 432.704, 495 432.569, 495 431.910 C 495 431.361, 495.632 431.045, 496.405 431.206 C 498.218 431.585, 502 427.256, 502 424.802 C 502 423.761, 500.895 421.805, 499.545 420.455 L 497.091 418 448.795 417.984 C 422.233 417.975, 389.475 417.550, 376 417.040 C 333.403 415.427, 311.836 415.156, 300.500 416.091 M 288.250 458.491 C 286.462 459.268, 285 460.177, 285 460.511 C 285 460.845, 285.563 460.833, 286.250 460.485 C 286.938 460.137, 286.807 460.448, 285.961 461.176 C 283.884 462.962, 283.735 467.049, 285.668 469.186 C 287.143 470.815, 292.609 470.929, 370.100 470.948 C 421.956 470.960, 453.921 470.600, 455.537 469.986 C 456.974 469.439, 457.827 468.530, 457.460 467.935 C 457.095 467.345, 457.405 466.999, 458.150 467.162 C 460.480 467.671, 464 463.766, 464 460.671 C 464 458.474, 463.630 457.928, 462.448 458.382 C 461.558 458.723, 461.157 458.555, 461.507 457.989 C 461.908 457.340, 432.778 457.013, 376.809 457.039 C 305.589 457.072, 290.963 457.312, 288.250 458.491 M 489.479 493.250 L 480.500 502.500 489.750 493.521 C 498.341 485.181, 499.455 484, 498.729 484 C 498.580 484, 494.418 488.163, 489.479 493.250 M 240.750 494.689 C 239.787 494.941, 239 495.590, 239 496.132 C 239 496.674, 238.563 496.848, 238.029 496.518 C 237.495 496.188, 236.756 497.125, 236.386 498.600 C 235.647 501.542, 236.977 506.520, 238.388 506.096 C 238.877 505.949, 239.612 506.371, 240.021 507.034 C 240.431 507.697, 242.731 508.267, 245.133 508.301 C 267.213 508.615, 407.312 507.817, 408.474 507.372 C 409.307 507.052, 409.743 506.393, 409.442 505.907 C 409.142 505.421, 409.673 505.321, 410.622 505.685 C 411.983 506.207, 412.200 505.964, 411.651 504.532 C 411.062 502.997, 411.189 502.912, 412.477 503.981 C 413.519 504.846, 414 504.890, 414 504.122 C 414 503.505, 414.563 503.112, 415.250 503.250 C 415.938 503.387, 416.383 502.925, 416.241 502.222 C 416.098 501.519, 416.661 500.684, 417.491 500.365 C 418.321 500.047, 419 498.683, 419 497.334 C 419 495.954, 418.563 495.152, 418 495.500 C 417.450 495.840, 417 495.641, 417 495.059 C 417 494.011, 244.728 493.650, 240.750 494.689 M 271.750 573.706 C 272.988 573.944, 275.012 573.944, 276.250 573.706 C 277.488 573.467, 276.475 573.272, 274 573.272 C 271.525 573.272, 270.512 573.467, 271.750 573.706 M 302.250 573.689 C 303.212 573.941, 304.788 573.941, 305.750 573.689 C 306.712 573.438, 305.925 573.232, 304 573.232 C 302.075 573.232, 301.288 573.438, 302.250 573.689" stroke="none" fill="#f5f4e9" fill-rule="evenodd"/></svg>